<svg xmlns:dc="http://purl.org/dc/elements/1.1/" xmlns:cc="http://creativecommons.org/ns#" xmlns:rdf="http://www.w3.org/1999/02/22-rdf-syntax-ns#" xmlns:svg="http://www.w3.org/2000/svg" xmlns="http://www.w3.org/2000/svg" xmlns:sodipodi="http://sodipodi.sourceforge.net/DTD/sodipodi-0.dtd" xmlns:inkscape="http://www.inkscape.org/namespaces/inkscape" version="1.1" x="0px" y="0px" viewBox="0 0 100 100"><g transform="translate(0,-952.36218)"><path style="text-indent:0;text-transform:none;direction:ltr;block-progression:tb;baseline-shift:baseline;color:#000000;enable-background:accumulate;" d="m 8.9999985,971.36218 c -2.16412,0 -4,1.8358 -4,4 l 0,54.00002 c 0,2.1641 1.83588,4 4,4 l 82.0000035,0 c 2.16412,0 4,-1.8359 4,-4 l 0,-54.00002 c 0,-2.1642 -1.83588,-4 -4,-4 l -82.0000035,0 z m 6.5937495,6 68.812504,0 -34.406253,31.90622 -34.40625,-31.90622 z m -4.59375,3.9375 22.1875,20.53122 -22.1875,21.4063 0,-41.93752 z m 78.000004,0 0,41.93752 -22.187503,-21.4063 22.187503,-20.53122 z m -51.375003,24.65622 10.34375,9.5938 a 3.0003,3.0003 0 0 0 4.0625,0 l 10.34375,-9.5938 22.218753,21.4063 -69.187503,0 22.21875,-21.4063 z" fill="#000000" fill-opacity="1" stroke="none" marker="none" visibility="visible" display="inline" overflow="visible"></path></g></svg>